<?xml version="1.0" encoding="UTF-8" standalone="no"?>
<svg
   xmlns:dc="http://purl.org/dc/elements/1.1/"
   xmlns:cc="http://creativecommons.org/ns#"
   xmlns:rdf="http://www.w3.org/1999/02/22-rdf-syntax-ns#"
   xmlns:svg="http://www.w3.org/2000/svg"
   xmlns="http://www.w3.org/2000/svg"
   version="1.1"
   id="svg2"
   viewBox="0 0 512.00001 512.00001"
   height="512"
   width="512">
  <defs
     id="defs4" />
  <metadata
     id="metadata7">
    <rdf:RDF>
      <cc:Work
         rdf:about="">
        <dc:format>image/svg+xml</dc:format>
        <dc:type
           rdf:resource="http://purl.org/dc/dcmitype/StillImage" />
        <dc:title></dc:title>
      </cc:Work>
    </rdf:RDF>
  </metadata>
  <g
     transform="translate(0,-540.36216)"
     id="layer1">
    <path
       id="rect6638"
       transform="translate(0,540.36216)"
       d="M 246.41602,16 C 240.64518,16 236,20.645182 236,26.416016 l 0,229.167964 c 0,0.14072 0.016,0.27669 0.0215,0.41602 L 26,256 c -5.54,0 -10.991025,4.54936 -10,10 l 40,220 c 0.991025,5.45064 4.46,10 10,10 l 380,0 c 5.54,0 9.00897,-4.54936 10,-10 l 40,-220 c 0.99103,-5.45064 -4.46,-10 -10,-10 l -210.02148,0 c 0.005,-0.13933 0.0215,-0.2753 0.0215,-0.41602 L 276,26.416016 C 276,20.645182 271.35482,16 265.58398,16 Z M 62.666016,296 449.33398,296 c 3.69334,0 7.63779,3.10282 6.66602,6.66602 L 416,449.33398 C 415.02823,452.89718 413.02732,456 409.33398,456 l -306.66796,0 C 98.972682,456 96.971774,452.89718 96,449.33398 L 56,302.66602 C 55.028226,299.10282 58.972682,296 62.666016,296 Z"
       style="opacity:1;fill:#ff6600;fill-opacity:1;fill-rule:nonzero;stroke:#000000;stroke-opacity:1;stroke-width:1;stroke-miterlimit:4;stroke-dasharray:none;stroke-linejoin:round;stroke-linecap:round" />
  </g>
</svg>
